<?xml version="1.0"?>
<svg xmlns="http://www.w3.org/2000/svg" xmlns:xlink="http://www.w3.org/1999/xlink" version="1.1" id="Layer_1" x="0px" y="0px" viewBox="0 0 300 300" style="enable-background:new 0 0 300 300;" xml:space="preserve" width="512px" height="512px" class=""><g><g>
	<g>
		<g>
			<path d="M149.997,0C67.157,0,0,67.159,0,149.997C0,232.838,67.157,300,149.997,300S300,232.838,300,149.997     C299.997,67.159,232.838,0,149.997,0z M48.848,82.872c0-3.592,3.984-6.629,8.702-6.629h142.102c4.715,0,8.702,3.037,8.702,6.629     v12.034H48.848V82.872z M74.785,143.602v14.939H57.55c-4.718,0-8.702-3.035-8.702-6.629v-41.444h159.508v10.945H99.048     C85.668,121.413,74.785,131.365,74.785,143.602z M249.853,212.642c0,3.592-3.986,6.627-8.702,6.627H99.048     c-4.718,0-8.702-3.035-8.702-6.627v-69.04h0.001c0-3.595,3.984-6.629,8.702-6.629h142.102c4.715,0,8.702,3.035,8.702,6.629     V212.642z" data-original="#000000" class="active-path" data-old_color="#000000" fill="#1890FF"/>
			<rect x="106.881" y="170.339" width="42.471" height="15.562" data-original="#000000" class="active-path" data-old_color="#000000" fill="#1890FF"/>
			<rect x="106.881" y="191.737" width="21.722" height="15.562" data-original="#000000" class="active-path" data-old_color="#000000" fill="#1890FF"/>
		</g>
	</g>
</g></g> </svg>
